<svg width="17" height="17" viewBox="0 0 17 17" fill="none" xmlns="http://www.w3.org/2000/svg">
<path d="M1.79289 0.924458L2.41854 0.298805C2.81695 -0.0996036 3.4629 -0.0996043 3.86131 0.298804L6.4993 2.93679C6.8977 3.3352 6.8977 3.98115 6.4993 4.37956L4.6707 6.20816C4.36578 6.51307 4.29019 6.97889 4.48304 7.36459C5.59785 9.59422 7.40576 11.4021 9.6354 12.5169C10.0211 12.7098 10.4869 12.6342 10.7918 12.3293L12.6204 10.5007C13.0188 10.1023 13.6648 10.1023 14.0632 10.5007L16.7012 13.1387C17.0996 13.5371 17.0996 14.183 16.7012 14.5814L16.0755 15.2071C13.9216 17.3611 10.5115 17.6034 8.07456 15.7757L6.84175 14.8511C5.06302 13.5171 3.48293 11.937 2.14888 10.1582L1.22428 8.92543C-0.60343 6.48848 -0.361088 3.07843 1.79289 0.924458Z" fill="#EEF1F4"/>
</svg>
